<mxfile host="app.diagrams.net" agent="Mozilla/5.0 (Windows NT 10.0; Win64; x64) AppleWebKit/537.36 (KHTML, like Gecko) Chrome/130.0.0.0 Safari/537.36 Edg/130.0.0.0" version="24.8.4">
  <diagram name="Страница — 1" id="fv6p93DTQwvKoZ51ZVJ9">
    <mxGraphModel dx="1106" dy="611" grid="1" gridSize="10" guides="1" tooltips="1" connect="1" arrows="1" fold="1" page="1" pageScale="1" pageWidth="827" pageHeight="1169" math="0" shadow="0">
      <root>
        <mxCell id="0" />
        <mxCell id="1" parent="0" />
        <mxCell id="xDwhYC1fdQ-X-vPRrRRB-1" value="start" style="strokeWidth=2;html=1;shape=mxgraph.flowchart.start_1;whiteSpace=wrap;fontFamily=Times New Roman;labelBackgroundColor=none;fontStyle=0;fontSize=13;fontColor=#000000;" parent="1" vertex="1">
          <mxGeometry x="320" y="40" width="120" height="80" as="geometry" />
        </mxCell>
        <mxCell id="xDwhYC1fdQ-X-vPRrRRB-2" value="input n" style="shape=parallelogram;html=1;strokeWidth=2;perimeter=parallelogramPerimeter;whiteSpace=wrap;rounded=1;arcSize=12;size=0.23;fontFamily=Times New Roman;labelBackgroundColor=none;fontStyle=0;fontSize=13;fontColor=#000000;" parent="1" vertex="1">
          <mxGeometry x="320" y="160" width="120" height="80" as="geometry" />
        </mxCell>
        <mxCell id="xDwhYC1fdQ-X-vPRrRRB-3" value="&lt;span lang=&quot;EN-US&quot; style=&quot;font-size: 13px; line-height: 150%;&quot;&gt;n &lt;/span&gt;&lt;span lang=&quot;EN-US&quot; style=&quot;font-size: 13px; line-height: 150%;&quot;&gt;&amp;gt; &lt;/span&gt;&lt;span lang=&quot;EN-US&quot; style=&quot;font-size: 13px; line-height: 150%;&quot;&gt;15&lt;/span&gt;" style="strokeWidth=2;html=1;shape=mxgraph.flowchart.decision;whiteSpace=wrap;fontFamily=Times New Roman;labelBackgroundColor=none;fontStyle=0;fontSize=13;fontColor=#000000;" parent="1" vertex="1">
          <mxGeometry x="320" y="280" width="120" height="120" as="geometry" />
        </mxCell>
        <mxCell id="xDwhYC1fdQ-X-vPRrRRB-4" value="&lt;span lang=&quot;EN-US&quot; style=&quot;font-size: 13px; line-height: 150%;&quot;&gt;arr&lt;/span&gt;&lt;span lang=&quot;EN-US&quot; style=&quot;line-height: 150%; font-size: 13px;&quot;&gt;[&lt;/span&gt;&lt;span lang=&quot;EN-US&quot; style=&quot;font-size: 13px; line-height: 150%;&quot;&gt;n&lt;/span&gt;&lt;span lang=&quot;EN-US&quot; style=&quot;font-size: 13px; line-height: 150%;&quot;&gt;][n&lt;/span&gt;&lt;span lang=&quot;EN-US&quot; style=&quot;font-size: 13px; line-height: 150%;&quot;&gt;]&lt;/span&gt;&lt;div style=&quot;font-size: 13px;&quot;&gt;&lt;span lang=&quot;EN-US&quot; style=&quot;font-size: 13px; line-height: 150%;&quot;&gt;sum &lt;/span&gt;&lt;span lang=&quot;EN-US&quot; style=&quot;font-size: 13px; line-height: 150%;&quot;&gt;= &lt;/span&gt;&lt;span lang=&quot;EN-US&quot; style=&quot;font-size: 13px; line-height: 150%;&quot;&gt;0&lt;/span&gt;&lt;div style=&quot;font-size: 13px;&quot;&gt;&lt;span lang=&quot;EN-US&quot; style=&quot;font-size: 13px; line-height: 150%;&quot;&gt;min &lt;/span&gt;&lt;span lang=&quot;EN-US&quot; style=&quot;font-size: 13px; line-height: 150%;&quot;&gt;= &lt;/span&gt;&lt;span style=&quot;font-size: 13px;&quot;&gt;&lt;span lang=&quot;EN-US&quot; style=&quot;font-size: 13px; line-height: 150%;&quot;&gt;INT_MAX&lt;/span&gt;&lt;/span&gt;&lt;/div&gt;&lt;/div&gt;" style="rounded=1;whiteSpace=wrap;html=1;absoluteArcSize=1;arcSize=14;strokeWidth=2;fontFamily=Times New Roman;labelBackgroundColor=none;fontStyle=0;fontSize=13;fontColor=#000000;" parent="1" vertex="1">
          <mxGeometry x="320" y="440" width="120" height="120" as="geometry" />
        </mxCell>
        <mxCell id="xDwhYC1fdQ-X-vPRrRRB-5" value="" style="verticalLabelPosition=bottom;verticalAlign=top;html=1;shape=hexagon;perimeter=hexagonPerimeter2;arcSize=6;size=0.27;strokeWidth=2;fontFamily=Times New Roman;labelBackgroundColor=none;fontStyle=0;fontSize=13;fontColor=#000000;" parent="1" vertex="1">
          <mxGeometry x="320" y="600" width="120" height="80" as="geometry" />
        </mxCell>
        <mxCell id="xDwhYC1fdQ-X-vPRrRRB-6" value="max = 0" style="rounded=1;whiteSpace=wrap;html=1;absoluteArcSize=1;arcSize=14;strokeWidth=2;fontFamily=Times New Roman;labelBackgroundColor=none;fontStyle=0;fontSize=13;fontColor=#000000;" parent="1" vertex="1">
          <mxGeometry x="320" y="720" width="120" height="120" as="geometry" />
        </mxCell>
        <mxCell id="xDwhYC1fdQ-X-vPRrRRB-7" value="1" style="verticalLabelPosition=middle;verticalAlign=middle;html=1;shape=mxgraph.flowchart.on-page_reference;strokeWidth=2;fontFamily=Times New Roman;labelBackgroundColor=none;fontStyle=0;fontSize=13;fontColor=#000000;labelPosition=center;align=center;" parent="1" vertex="1">
          <mxGeometry x="360" y="880" width="40" height="40" as="geometry" />
        </mxCell>
        <mxCell id="xDwhYC1fdQ-X-vPRrRRB-8" value="3" style="verticalLabelPosition=middle;verticalAlign=middle;html=1;shape=mxgraph.flowchart.on-page_reference;strokeWidth=2;fontFamily=Times New Roman;labelBackgroundColor=none;fontStyle=0;fontSize=13;fontColor=#000000;labelPosition=center;align=center;" parent="1" vertex="1">
          <mxGeometry x="460" y="880" width="40" height="40" as="geometry" />
        </mxCell>
        <mxCell id="xDwhYC1fdQ-X-vPRrRRB-9" value="2" style="verticalLabelPosition=middle;verticalAlign=middle;html=1;shape=mxgraph.flowchart.on-page_reference;strokeWidth=2;fontFamily=Times New Roman;labelBackgroundColor=none;fontStyle=0;fontSize=13;fontColor=#000000;labelPosition=center;align=center;" parent="1" vertex="1">
          <mxGeometry x="260" y="880" width="40" height="40" as="geometry" />
        </mxCell>
        <mxCell id="xDwhYC1fdQ-X-vPRrRRB-10" value="4" style="verticalLabelPosition=middle;verticalAlign=middle;html=1;shape=mxgraph.flowchart.on-page_reference;strokeWidth=2;fontFamily=Times New Roman;labelBackgroundColor=none;fontStyle=0;fontSize=13;fontColor=#000000;labelPosition=center;align=center;" parent="1" vertex="1">
          <mxGeometry x="560" y="880" width="40" height="40" as="geometry" />
        </mxCell>
        <mxCell id="xDwhYC1fdQ-X-vPRrRRB-11" value="" style="endArrow=classic;html=1;rounded=0;exitX=0.5;exitY=1;exitDx=0;exitDy=0;exitPerimeter=0;entryX=0.5;entryY=0;entryDx=0;entryDy=0;fontFamily=Times New Roman;labelBackgroundColor=none;fontStyle=0;fontSize=13;fontColor=#000000;" parent="1" source="xDwhYC1fdQ-X-vPRrRRB-1" target="xDwhYC1fdQ-X-vPRrRRB-2" edge="1">
          <mxGeometry width="50" height="50" relative="1" as="geometry">
            <mxPoint x="500" y="200" as="sourcePoint" />
            <mxPoint x="550" y="150" as="targetPoint" />
          </mxGeometry>
        </mxCell>
        <mxCell id="xDwhYC1fdQ-X-vPRrRRB-12" value="" style="endArrow=classic;html=1;rounded=0;exitX=0.5;exitY=1;exitDx=0;exitDy=0;entryX=0.5;entryY=0;entryDx=0;entryDy=0;entryPerimeter=0;fontFamily=Times New Roman;labelBackgroundColor=none;fontStyle=0;fontSize=13;fontColor=#000000;" parent="1" source="xDwhYC1fdQ-X-vPRrRRB-2" target="xDwhYC1fdQ-X-vPRrRRB-3" edge="1">
          <mxGeometry width="50" height="50" relative="1" as="geometry">
            <mxPoint x="390" y="130" as="sourcePoint" />
            <mxPoint x="390" y="170" as="targetPoint" />
          </mxGeometry>
        </mxCell>
        <mxCell id="xDwhYC1fdQ-X-vPRrRRB-13" value="" style="endArrow=classic;html=1;rounded=0;exitX=0.5;exitY=1;exitDx=0;exitDy=0;entryX=0.5;entryY=0;entryDx=0;entryDy=0;exitPerimeter=0;fontFamily=Times New Roman;labelBackgroundColor=none;fontStyle=0;fontSize=13;fontColor=#000000;" parent="1" source="xDwhYC1fdQ-X-vPRrRRB-3" target="xDwhYC1fdQ-X-vPRrRRB-4" edge="1">
          <mxGeometry width="50" height="50" relative="1" as="geometry">
            <mxPoint x="390" y="250" as="sourcePoint" />
            <mxPoint x="390" y="290" as="targetPoint" />
          </mxGeometry>
        </mxCell>
        <mxCell id="xDwhYC1fdQ-X-vPRrRRB-14" value="" style="endArrow=classic;html=1;rounded=0;exitX=0.5;exitY=1;exitDx=0;exitDy=0;entryX=0.5;entryY=0;entryDx=0;entryDy=0;fontFamily=Times New Roman;labelBackgroundColor=none;fontStyle=0;fontSize=13;fontColor=#000000;" parent="1" source="xDwhYC1fdQ-X-vPRrRRB-4" target="xDwhYC1fdQ-X-vPRrRRB-5" edge="1">
          <mxGeometry width="50" height="50" relative="1" as="geometry">
            <mxPoint x="390" y="410" as="sourcePoint" />
            <mxPoint x="390" y="450" as="targetPoint" />
          </mxGeometry>
        </mxCell>
        <mxCell id="xDwhYC1fdQ-X-vPRrRRB-15" value="" style="endArrow=classic;html=1;rounded=0;exitX=0.5;exitY=1;exitDx=0;exitDy=0;entryX=0.5;entryY=0;entryDx=0;entryDy=0;fontFamily=Times New Roman;labelBackgroundColor=none;fontStyle=0;fontSize=13;fontColor=#000000;" parent="1" source="xDwhYC1fdQ-X-vPRrRRB-5" target="xDwhYC1fdQ-X-vPRrRRB-6" edge="1">
          <mxGeometry width="50" height="50" relative="1" as="geometry">
            <mxPoint x="390" y="570" as="sourcePoint" />
            <mxPoint x="390" y="610" as="targetPoint" />
          </mxGeometry>
        </mxCell>
        <mxCell id="xDwhYC1fdQ-X-vPRrRRB-16" value="" style="endArrow=classic;html=1;rounded=0;exitX=0.5;exitY=1;exitDx=0;exitDy=0;entryX=0.5;entryY=0;entryDx=0;entryDy=0;entryPerimeter=0;fontFamily=Times New Roman;labelBackgroundColor=none;fontStyle=0;fontSize=13;fontColor=#000000;" parent="1" source="xDwhYC1fdQ-X-vPRrRRB-6" target="xDwhYC1fdQ-X-vPRrRRB-7" edge="1">
          <mxGeometry width="50" height="50" relative="1" as="geometry">
            <mxPoint x="390" y="690" as="sourcePoint" />
            <mxPoint x="390" y="730" as="targetPoint" />
          </mxGeometry>
        </mxCell>
        <mxCell id="xDwhYC1fdQ-X-vPRrRRB-17" value="" style="endArrow=classic;html=1;rounded=0;exitX=0.5;exitY=0;exitDx=0;exitDy=0;entryX=0;entryY=0.5;entryDx=0;entryDy=0;exitPerimeter=0;fontFamily=Times New Roman;labelBackgroundColor=none;fontStyle=0;fontSize=13;fontColor=#000000;" parent="1" source="xDwhYC1fdQ-X-vPRrRRB-9" target="xDwhYC1fdQ-X-vPRrRRB-5" edge="1">
          <mxGeometry width="50" height="50" relative="1" as="geometry">
            <mxPoint x="390" y="850" as="sourcePoint" />
            <mxPoint x="390" y="890" as="targetPoint" />
            <Array as="points">
              <mxPoint x="280" y="640" />
            </Array>
          </mxGeometry>
        </mxCell>
        <mxCell id="xDwhYC1fdQ-X-vPRrRRB-18" value="" style="endArrow=classic;html=1;rounded=0;exitX=1;exitY=0.5;exitDx=0;exitDy=0;entryX=0.5;entryY=0;entryDx=0;entryDy=0;entryPerimeter=0;fontFamily=Times New Roman;labelBackgroundColor=none;fontStyle=0;fontSize=13;fontColor=#000000;" parent="1" source="xDwhYC1fdQ-X-vPRrRRB-5" target="xDwhYC1fdQ-X-vPRrRRB-8" edge="1">
          <mxGeometry width="50" height="50" relative="1" as="geometry">
            <mxPoint x="270" y="890" as="sourcePoint" />
            <mxPoint x="330" y="650" as="targetPoint" />
            <Array as="points">
              <mxPoint x="480" y="640" />
            </Array>
          </mxGeometry>
        </mxCell>
        <mxCell id="xDwhYC1fdQ-X-vPRrRRB-19" value="" style="endArrow=classic;html=1;rounded=0;exitX=1;exitY=0.5;exitDx=0;exitDy=0;exitPerimeter=0;fontFamily=Times New Roman;labelBackgroundColor=none;fontStyle=0;fontSize=13;fontColor=#000000;entryX=0.5;entryY=0;entryDx=0;entryDy=0;" parent="1" source="xDwhYC1fdQ-X-vPRrRRB-3" target="L3sTbE3pHAXzlSm4I1Vl-1" edge="1">
          <mxGeometry width="50" height="50" relative="1" as="geometry">
            <mxPoint x="494" y="340" as="sourcePoint" />
            <mxPoint x="580" y="410" as="targetPoint" />
            <Array as="points">
              <mxPoint x="580" y="340" />
            </Array>
          </mxGeometry>
        </mxCell>
        <mxCell id="xDwhYC1fdQ-X-vPRrRRB-20" value="&lt;span lang=&quot;EN-US&quot; style=&quot;font-size: 13px; line-height: 150%;&quot;&gt;i &lt;/span&gt;&lt;span lang=&quot;EN-US&quot; style=&quot;font-size: 13px; line-height: 150%;&quot;&gt;= &lt;/span&gt;&lt;span lang=&quot;EN-US&quot; style=&quot;font-size: 13px; line-height: 150%;&quot;&gt;0&lt;/span&gt;&lt;span lang=&quot;EN-US&quot; style=&quot;font-size: 13px; line-height: 150%;&quot;&gt;; &lt;/span&gt;&lt;span lang=&quot;EN-US&quot; style=&quot;font-size: 13px; line-height: 150%;&quot;&gt;i &lt;/span&gt;&lt;span lang=&quot;EN-US&quot; style=&quot;font-size: 13px; line-height: 150%;&quot;&gt;&amp;lt; &lt;/span&gt;&lt;span lang=&quot;EN-US&quot; style=&quot;font-size: 13px; line-height: 150%;&quot;&gt;n&lt;/span&gt;&lt;span lang=&quot;EN-US&quot; style=&quot;font-size: 13px; line-height: 150%;&quot;&gt;;&lt;/span&gt;&lt;div style=&quot;font-size: 13px;&quot;&gt;&lt;span lang=&quot;EN-US&quot; style=&quot;font-size: 13px; line-height: 150%;&quot;&gt;i&lt;/span&gt;&lt;span lang=&quot;EN-US&quot; style=&quot;font-size: 13px; line-height: 150%;&quot;&gt;++&lt;/span&gt;&lt;/div&gt;" style="text;html=1;align=center;verticalAlign=middle;whiteSpace=wrap;rounded=0;fontFamily=Times New Roman;labelBackgroundColor=none;fontStyle=0;fontSize=13;fontColor=#000000;" parent="1" vertex="1">
          <mxGeometry x="320" y="600" width="120" height="80" as="geometry" />
        </mxCell>
        <mxCell id="L3sTbE3pHAXzlSm4I1Vl-1" value="&lt;span style=&quot;background-color: initial;&quot;&gt;&quot;n &amp;gt; 15&quot;&lt;/span&gt;" style="shape=parallelogram;html=1;strokeWidth=2;perimeter=parallelogramPerimeter;whiteSpace=wrap;rounded=1;arcSize=12;size=0.23;fontFamily=Times New Roman;labelBackgroundColor=none;fontStyle=0;fontSize=13;fontColor=#000000;" vertex="1" parent="1">
          <mxGeometry x="520" y="440" width="120" height="80" as="geometry" />
        </mxCell>
        <mxCell id="L3sTbE3pHAXzlSm4I1Vl-2" value="" style="endArrow=classic;html=1;rounded=0;exitX=0.5;exitY=1;exitDx=0;exitDy=0;fontFamily=Times New Roman;labelBackgroundColor=none;fontStyle=0;fontSize=13;fontColor=#000000;entryX=0.5;entryY=0;entryDx=0;entryDy=0;entryPerimeter=0;" edge="1" parent="1" source="L3sTbE3pHAXzlSm4I1Vl-1" target="xDwhYC1fdQ-X-vPRrRRB-10">
          <mxGeometry width="50" height="50" relative="1" as="geometry">
            <mxPoint x="390" y="570" as="sourcePoint" />
            <mxPoint x="560" y="750" as="targetPoint" />
          </mxGeometry>
        </mxCell>
      </root>
    </mxGraphModel>
  </diagram>
</mxfile>
